:SAMPLES-PER-SECOND 30
:FULLY-SPECIFIED
:DEGREES
1
root  34.67372083 36.5026489 -14.95593364 8.424256325 -5.491683006 3.590670586
lowerback  -8.011910439 -1.130209923 -0.9560496807
upperback  -3.934459925 -1.014539957 -2.849440098
thorax  0.3909089863 -0.3536379933 -2.483089924
lowerneck  -6.447889805 -13.59290028 -11.61590004
upperneck  14.38449955 -18.5909996 10.93620014
head  7.603350163 -8.67525959 3.514810085
lclavicle  0 -4.497500157e-015 -2.743230041e-014
lhumerus  -49.02709961 27.58110046 64.97940063
lradius  5.228657756e-007 -6.507048965e-006 30.20659828
lwrist  4.824992743e-007 -3.790274832e-007 -27.81040001
lhand  -4.413167194e-031 -36.85710144 -10.38479996
lfingers  90 7.125020027 -90
lthumb  94.73460718 -25.22747468 100.9968456
rclavicle  0 -4.497500157e-015 -2.743230041e-014
rhumerus  -63.38360214 -41.11209869 -44.16759491
rradius  -5.16745672e-007 2.214343908e-008 32.92100143
rwrist  -0.0001064338358 0.02074225061 -141.4250031
rhand  -3.535513218e-031 -2.854949951 -7.66711998
rfingers  -90 -7.125020027 -90
rthumb  -86.61206786 -7.981945253 -66.91035963
rfemur  -12.74821186 16.41739082 13.28217125
rtibia  -1.505160332 -1.032704473 21.48466682
rfoot  -0.04073601961 -22.11289215 -36.24384308
rtoes  4.138733712 19.58426543 -102.1819001
lfemur  -8.380434036 -16.72796822 -19.98963356
ltibia  2.288208008 -1.017299414 15.20021629
lfoot  0.9247919917 -23.54522324 37.5721283
ltoes  -8.724062091 -18.06748907 -116.3255407
2
root  34.67464898 36.50188897 -14.95642775 8.417303085 -5.518155098 3.601954222
lowerback  -8.00658989 -1.115329981 -0.9235501885
upperback  -3.9246099 -0.9977729917 -2.862020016
thorax  0.3978660107 -0.3461749852 -2.513040066
lowerneck  -6.373169899 -13.6427002 -11.6267004
upperneck  14.28199959 -18.65869904 10.93019962
head  7.565279961 -8.71584034 3.511209965
lclavicle  0 -4.497500157e-015 -2.743230041e-014
lhumerus  -49.02410126 27.62969971 64.91619873
lradius  5.228657756e-007 -6.507048965e-006 30.20659828
lwrist  4.824992743e-007 -3.790274832e-007 -27.83819962
lhand  -4.413426916e-031 -36.86159897 -10.43980026
lfingers  90 7.125020027 -90
lthumb  94.74829025 -25.28130286 101.0065857
rclavicle  0 -4.497500157e-015 -2.743230041e-014
rhumerus  -63.22240067 -41.04449844 -44.38150406
rradius  -5.16745672e-007 2.214343908e-008 32.90819931
rwrist  -0.0001064338358 0.02074225061 -141.3809967
rhand  -1.767945559e-031 -2.975209951 -7.610770226
rfingers  -90 -7.125020027 -90
rthumb  -86.61159503 -8.027599693 -67.02436996
rfemur  -12.78952217 16.44319534 13.26571941
rtibia  -1.524135113 -1.052544713 21.54191589
rfoot  -0.08122508228 -22.16200256 -36.27018738
rtoes  4.186268932 19.57453898 -102.3237484
lfemur  -8.389476776 -16.71422577 -19.9964447
ltibia  2.276690245 -1.010983586 15.20497036
lfoot  0.9405501485 -23.571064 37.62857437
ltoes  -8.726770532 -18.0662148 -116.3342741
3
root  34.67621991 36.5011861 -14.9569579 8.401874542 -5.557079792 3.604442835
lowerback  -8.057900429 -1.101369977 -0.9265833497
upperback  -3.901109934 -0.9773859978 -2.87473011
thorax  0.451007992 -0.3361330032 -2.523859978
lowerneck  -6.309420109 -13.69859982 -11.61079979
upperneck  14.16170025 -18.73460007 10.9144001
head  7.520629883 -8.760100365 3.499389887
lclavicle  0 -4.497500157e-015 -2.743230041e-014
lhumerus  -49.00370026 27.6916008 64.85800171
lradius  5.228657756e-007 -6.507048965e-006 30.20659828
lwrist  4.824992743e-007 -3.790274832e-007 -27.88069916
lhand  -4.412260932e-031 -36.84140015 -10.50790024
lfingers  90 7.125020027 -90
lthumb  94.7532762 -25.34888405 100.9911416
rclavicle  0 -4.497500157e-015 -2.743230041e-014
rhumerus  -63.14199448 -41.11320114 -44.45090485
rradius  -5.16745672e-007 2.214343908e-008 32.9294014
rwrist  -0.0001064338358 0.02074225061 -141.3130035
rhand  -1.767802125e-031 -2.884380102 -7.58355999
rfingers  -90 -7.125020027 -90
rthumb  -86.58434033 -8.057315508 -66.93446639
rfemur  -12.79169655 16.46689224 13.25049877
rtibia  -1.524954319 -1.052105784 21.54748726
rfoot  -0.08042547107 -22.15373421 -36.26461411
rtoes  4.133481781 19.5853329 -102.1662321
lfemur  -8.394824028 -16.74668694 -20.00153542
ltibia  2.255530357 -1.047026277 15.23827553
lfoot  0.9446333051 -23.51714706 37.67915726
ltoes  -8.730316873 -18.06454556 -116.3457101
4
root  34.6777578 36.50086771 -14.95722523 8.384115219 -5.57639122 3.608169556
lowerback  -8.054129601 -1.098399997 -0.9148473144
upperback  -3.905669928 -0.9738100171 -2.882699966
thorax  0.443967998 -0.3343400061 -2.538330078
lowerneck  -6.234839916 -13.74670029 -11.61779976
upperneck  14.06470013 -18.8022995 10.92230034
head  7.48555994 -8.798800468 3.499749899
lclavicle  0 -4.497500157e-015 -2.743230041e-014
lhumerus  -49.01399994 27.71980095 64.82019806
lradius  5.228657756e-007 -6.507048965e-006 30.21030045
lwrist  4.824992743e-007 -3.790274832e-007 -27.91500092
lhand  -4.412474444e-031 -36.8451004 -10.40429974
lfingers  90 7.125020027 -90
lthumb  94.73315096 -25.24698361 100.9857853
rclavicle  0 -4.497500157e-015 -2.743230041e-014
rhumerus  -63.08229446 -41.1344986 -44.48610306
rradius  -5.16745672e-007 2.214343908e-008 32.93299866
rwrist  -0.0001064338358 0.02074225061 -141.2380066
rhand  -1.767773088e-031 -2.865639925 -7.639100075
rfingers  -90 -7.125020027 -90
rthumb  -86.60290143 -8.007207182 -66.91926836
rfemur  -12.76788616 16.45615959 13.24696064
rtibia  -1.51912415 -1.06393373 21.53509331
rfoot  -0.06438970566 -22.17699051 -36.22584915
rtoes  4.116659007 19.5887426 -102.1160506
lfemur  -8.369028091 -16.73587418 -20.01415253
ltibia  2.262122631 -1.060983419 15.23023129
lfoot  0.9392340183 -23.48781776 37.6685257
ltoes  -8.709355485 -18.07439955 -116.2781298
5
root  34.68130517 36.50244165 -14.95840118 8.37791729 -5.601502895 3.610094547
lowerback  -8.005440712 -1.109430075 -0.9535730481
upperback  -3.930870056 -0.9868429899 -2.869760036
thorax  0.3916079998 -0.3399609923 -2.503200054
lowerneck  -6.147140026 -13.77939987 -11.64850044
upperneck  13.9751997 -18.84800148 10.93459988
head  7.450910091 -8.828120232 3.508670092
lclavicle  0 -4.497500157e-015 -2.743230041e-014
lhumerus  -49.07410049 27.69440079 64.78849792
lradius  5.228657756e-007 -6.507048965e-006 30.25209999
lwrist  4.824992743e-007 -3.790274832e-007 -27.80279922
lhand  -4.416052048e-031 -36.9070015 -10.66629982
lfingers  90 7.125020027 -90
lthumb  94.81749295 -25.50201483 101.0757362
rclavicle  0 -4.497500157e-015 -2.743230041e-014
rhumerus  -62.95999908 -41.04779816 -44.62590408
rradius  -5.16745672e-007 2.214343908e-008 32.93259811
rwrist  -0.0001064338358 0.02074225061 -141.2640076
rhand  -1.767598079e-031 -2.749979973 -7.59059
rfingers  -90 -7.125020027 -90
rthumb  -86.56258015 -8.057789603 -66.80391846
rfemur  -12.76501274 16.47879601 13.23432732
rtibia  -1.511301875 -1.074082732 21.5258503
rfoot  -0.064961344 -22.18958664 -36.23991776
rtoes  4.117511011 19.58857026 -102.1185919
lfemur  -8.377987862 -16.75718117 -20.0147419
ltibia  2.249554157 -1.062194109 15.254282
lfoot  0.9520309567 -23.50728989 37.71126938
ltoes  -8.695965129 -18.08067879 -116.2349774
